<svg width="42" height="42" viewBox="0 0 42 42" fill="none" xmlns="http://www.w3.org/2000/svg">
<path fill-rule="evenodd" clip-rule="evenodd" d="M3.5 21C3.5 11.34 11.3575 3.5 21 3.5L21.4896 3.50673C30.9235 3.76629 38.5 11.5037 38.5 21C38.5 30.6425 30.66 38.5 21 38.5C11.3575 38.5 3.5 30.6425 3.5 21ZM24.465 28C24.9725 27.475 24.9725 26.6525 24.4475 26.145L19.285 21L24.4475 15.855C24.9725 15.3475 24.9725 14.5075 24.465 14C23.94 13.475 23.1175 13.475 22.61 14L16.5025 20.0725C16.2575 20.3175 16.1175 20.65 16.1175 21C16.1175 21.35 16.2575 21.6825 16.5025 21.9275L22.61 28C22.855 28.2625 23.1875 28.385 23.52 28.385C23.87 28.385 24.2025 28.2625 24.465 28Z" fill="white"/>
</svg>
