<svg width="34" height="34" viewBox="0 0 34 34" fill="none" xmlns="http://www.w3.org/2000/svg">
<path fill-rule="evenodd" clip-rule="evenodd" d="M22.7799 31.1667H11.2057C6.20486 31.1667 2.83319 27.9494 2.83319 23.1483V10.8658C2.83319 6.06334 6.20486 2.83334 11.2057 2.83334H22.7799C27.7949 2.83334 31.1665 6.06334 31.1665 10.8658V23.1483C31.1665 27.9494 27.7949 31.1667 22.7799 31.1667ZM20.2157 15.9375H11.2199C10.6249 15.9375 10.1574 16.4192 10.1574 17C10.1574 17.595 10.6249 18.0625 11.2199 18.0625H20.2157L16.7024 21.5617C16.504 21.76 16.3907 22.0433 16.3907 22.3125C16.3907 22.5803 16.504 22.8508 16.7024 23.0633C17.1132 23.4742 17.7932 23.4742 18.204 23.0633L23.5449 17.7508C23.9415 17.3542 23.9415 16.6458 23.5449 16.2492L18.204 10.9367C17.7932 10.5258 17.1132 10.5258 16.7024 10.9367C16.2915 11.3617 16.2915 12.0275 16.7024 12.4525L20.2157 15.9375Z" fill="#6171ba"/>
</svg>
