<svg width="34" height="34" viewBox="0 0 34 34" fill="none" xmlns="http://www.w3.org/2000/svg">
<path fill-rule="evenodd" clip-rule="evenodd" d="M26.5017 12.4615C26.5017 14.2407 26.972 15.2894 28.0068 16.4979C28.7911 17.3883 29.0417 18.5311 29.0417 19.771C29.0417 21.0095 28.6348 22.1852 27.8196 23.1397C26.7523 24.284 25.2472 25.0146 23.7111 25.1416C21.4851 25.3313 19.2577 25.4911 17.0007 25.4911C14.7423 25.4911 12.5163 25.3955 10.2903 25.1416C8.75282 25.0146 7.2477 24.284 6.18187 23.1397C5.36665 22.1852 4.95834 21.0095 4.95834 19.771C4.95834 18.5311 5.21037 17.3883 5.9932 16.4979C7.06044 15.2894 7.49973 14.2407 7.49973 12.4615V11.8579C7.49973 9.47516 8.09389 7.91708 9.31742 6.39181C11.1365 4.16741 14.0524 2.83334 16.9374 2.83334H17.0641C20.011 2.83334 23.0212 4.23162 24.8093 6.55162C25.9695 8.04549 26.5017 9.53794 26.5017 11.8579V12.4615ZM12.8544 28.4195C12.8544 27.7061 13.5091 27.3794 14.1145 27.2396C14.8227 27.0897 19.1382 27.0897 19.8464 27.2396C20.4518 27.3794 21.1065 27.7061 21.1065 28.4195C21.0713 29.0987 20.6728 29.7008 20.1223 30.0832C19.4085 30.6396 18.5707 30.9921 17.695 31.1191C17.2106 31.1818 16.7347 31.1833 16.2673 31.1191C15.3901 30.9921 14.5524 30.6396 13.84 30.0818C13.288 29.7008 12.8896 29.0987 12.8544 28.4195Z" fill="white"/>
</svg>
